<?xml version="1.0" encoding="UTF-8"?>
<svg width="700pt" height="700pt" version="1.1" viewBox="0 0 700 700" xmlns="http://www.w3.org/2000/svg">
 <g>
  <path d="m408.01 153.51c1.3633-3.1875 1.7266-6.7148 1.0469-10.113-0.67969-3.3984-2.3711-6.5156-4.8516-8.9336l-41.84-41.832c-3.2812-3.2812-7.7344-5.125-12.375-5.125-4.6406 0-9.0898 1.8438-12.371 5.125l-41.828 41.832c-3.2773 3.2812-5.1211 7.7305-5.1172 12.367 0 4.6367 1.8398 9.0859 5.1211 12.367 3.2773 3.2812 7.7227 5.125 12.363 5.1289h6.8398c1.5469 0 3.0312 0.61719 4.125 1.7109s1.707 2.5781 1.707 4.125v35c0 10.418 5.5586 20.047 14.586 25.258 9.0234 5.2109 20.141 5.2109 29.164 0 9.0273-5.2109 14.586-14.84 14.586-25.258v-35c0-3.2227 2.6094-5.8359 5.832-5.8359h6.8359c3.4727 0.039063 6.875-0.97266 9.7617-2.9062 2.8867-1.9297 5.125-4.6875 6.4141-7.9102zm-10.777-4.4648c-0.87109 2.2109-3.0195 3.6523-5.3984 3.625h-6.8359c-4.6367 0.007813-9.0859 1.8516-12.363 5.1328-3.2812 3.2812-5.1289 7.7266-5.1367 12.367v35c0 6.25-3.3359 12.027-8.75 15.152-5.4141 3.1289-12.086 3.1289-17.5 0-5.4141-3.125-8.75-8.9023-8.75-15.152v-35c-0.007812-4.6406-1.8555-9.0859-5.1367-12.367-3.2773-3.2812-7.7266-5.125-12.363-5.1328h-6.8359c-2.3594-0.003906-4.4883-1.4258-5.3906-3.6055-0.90234-2.1797-0.40234-4.6875 1.2656-6.3555l41.836-41.836c1.0938-1.0938 2.5781-1.7109 4.125-1.7109s3.0312 0.61719 4.125 1.7109l41.84 41.836c1.6914 1.6484 2.1953 4.1641 1.2695 6.3359z"/>
  <path d="m595 437.5h-25.75c12.523-9.8594 19.855-24.895 19.918-40.832v-233.34c-0.019531-13.918-5.5586-27.258-15.398-37.102-9.8438-9.8398-23.184-15.379-37.102-15.398h-41.426c-1.4102-12.797-7.4805-24.625-17.055-33.234-9.5742-8.6055-21.98-13.387-34.855-13.43-6.1445 0-12.242 1.1094-18 3.2656-21.352-17.184-47.926-26.57-75.332-26.602h-23.332c-16.875-0.035156-33.574 3.4609-49.016 10.27-2.7734 1.3945-3.9648 4.7188-2.7148 7.5586s4.5078 4.207 7.4102 3.1016c13.969-6.1328 29.062-9.2891 44.32-9.2617h23.332c25.891 0.054688 50.918 9.3086 70.617 26.113 1.707 1.4414 4.0977 1.7617 6.1289 0.82031 5.2109-2.3672 10.863-3.5977 16.586-3.6016 9.8359-0.019531 19.348 3.5195 26.781 9.9648 7.4297 6.4453 12.281 15.359 13.652 25.098 1.375 9.7422-0.82422 19.648-6.1836 27.898-1.0273 1.5938-1.2148 3.5859-0.50391 5.3477 0.71094 1.7578 2.2344 3.0586 4.082 3.4922 20.641 4.7617 37.598 19.418 45.297 39.152s5.1484 42-6.8125 59.484c-11.965 17.484-31.793 27.926-52.977 27.898h-233.34c-20.551 0.0625-39.879-9.7539-51.957-26.379-12.074-16.629-15.426-38.047-9.0078-57.57 6.418-19.523 21.828-34.773 41.414-40.992 2.0586-0.67969 3.5742-2.4414 3.9453-4.5781 4.75-27.922 20.004-52.969 42.633-70 1.332-0.89453 2.2383-2.2969 2.5039-3.8789s-0.12891-3.2031-1.0977-4.4844c-0.96484-1.2773-2.418-2.1055-4.0117-2.2812-1.5938-0.17578-3.1914 0.3125-4.4141 1.3477-15.691 11.98-28.242 27.586-36.574 45.48h-53.434c-13.918 0.019531-27.258 5.5586-37.102 15.398-9.8398 9.8438-15.379 23.184-15.398 37.102v233.34c0.0625 15.938 7.3945 30.973 19.918 40.832h-25.75c-4.6367 0.007812-9.0859 1.8555-12.363 5.1367-3.2812 3.2773-5.1289 7.7266-5.1367 12.363 0.011719 10.824 4.3203 21.203 11.977 28.859 7.6523 7.6523 18.031 11.961 28.855 11.973h35c3.2227 0 5.8359-2.6094 5.8359-5.832s-2.6133-5.832-5.8359-5.832h-35c-7.7305-0.007813-15.148-3.082-20.613-8.5508-5.4688-5.4688-8.5469-12.883-8.5508-20.617 0-3.2227 2.6094-5.832 5.832-5.832h490c1.5469 0 3.0312 0.61328 4.125 1.707s1.707 2.5781 1.707 4.125c-0.003906 7.7344-3.082 15.148-8.5508 20.617-5.4648 5.4688-12.883 8.543-20.613 8.5508h-385c-3.2227 0-5.8359 2.6094-5.8359 5.832s2.6133 5.832 5.8359 5.832h385c10.824-0.011719 21.203-4.3203 28.855-11.973 7.6562-7.6562 11.965-18.035 11.977-28.859-0.007812-4.6367-1.8555-9.0859-5.1367-12.363-3.2773-3.2812-7.7266-5.1289-12.363-5.1367zm-431.67 0c-10.824-0.011719-21.203-4.3203-28.855-11.977-7.6562-7.6523-11.965-18.031-11.977-28.855v-233.34c0.011719-10.824 4.3203-21.203 11.977-28.855 7.6523-7.6562 18.031-11.965 28.855-11.977h48.5c-1.3477 3.8164-2.4883 7.6992-3.4609 11.668h-45.039c-7.7305 0.003906-15.148 3.082-20.613 8.5508-5.4688 5.4648-8.5469 12.883-8.5508 20.613v210c0.003906 7.7344 3.082 15.148 8.5508 20.617 5.4648 5.4688 12.883 8.543 20.613 8.5508h373.34c7.7305-0.007812 15.148-3.082 20.613-8.5508 5.4688-5.4688 8.5469-12.883 8.5508-20.617v-46.664c0-3.2227-2.6094-5.8359-5.832-5.8359s-5.832 2.6133-5.832 5.8359v46.668-0.003907c-0.011719 4.6406-1.8555 9.0859-5.1367 12.367-3.2812 3.2773-7.7266 5.125-12.363 5.1328h-373.34c-4.6367-0.007812-9.082-1.8555-12.363-5.1328-3.2812-3.2812-5.125-7.7266-5.1367-12.367v-210c0.011719-4.6367 1.8555-9.082 5.1367-12.363s7.7266-5.125 12.363-5.1367h30.402c-22.461 13.59-36.199 37.918-36.234 64.168 0.023438 20.105 8.0195 39.379 22.238 53.598 14.215 14.215 33.488 22.211 53.594 22.234h233.34c20.105-0.023437 39.379-8.0195 53.594-22.234 14.219-14.219 22.215-33.492 22.238-53.598 0.027344-26.191-13.59-50.504-35.934-64.168h30.102c4.6367 0.011719 9.082 1.8555 12.363 5.1367s5.125 7.7266 5.1367 12.363v140c0 3.2227 2.6094 5.8359 5.832 5.8359s5.832-2.6133 5.832-5.8359v-140c-0.003906-7.7305-3.082-15.148-8.5508-20.613-5.4648-5.4688-12.883-8.5469-20.613-8.5508h-44.18c1.3555-3.7695 2.2695-7.6875 2.7148-11.668h41.465c10.824 0.011719 21.203 4.3203 28.855 11.977 7.6562 7.6523 11.965 18.031 11.977 28.855v233.34c-0.011719 10.824-4.3203 21.203-11.977 28.855-7.6523 7.6562-18.031 11.965-28.855 11.977z"/>
  <path d="m373.33 472.5c3.2227 0 5.8359-2.6133 5.8359-5.832 0-3.2227-2.6133-5.8359-5.8359-5.8359h-46.664c-3.2227 0-5.8359 2.6133-5.8359 5.8359 0 3.2188 2.6133 5.832 5.8359 5.832z"/>
  <path d="m303.33 246c-3.2188 0-5.832 2.6094-5.832 5.832 0 3.2227 2.6133 5.8359 5.832 5.8359h93.336c3.2188 0 5.832-2.6133 5.832-5.8359 0-3.2227-2.6133-5.832-5.832-5.832z"/>
 </g>
</svg>
